<?xml version="1.0" standalone="no"?>
<!DOCTYPE svg PUBLIC "-//W3C//DTD SVG 20010904//EN"
 "http://www.w3.org/TR/2001/REC-SVG-20010904/DTD/svg10.dtd">
<svg version="1.0" xmlns="http://www.w3.org/2000/svg"
 width="980.000000pt" height="980.000000pt" viewBox="0 0 980.000000 980.000000"
 preserveAspectRatio="xMidYMid meet">
<metadata>
Created by potrace 1.14, written by Peter Selinger 2001-2017
</metadata>
<g transform="translate(0.000000,980.000000) scale(0.100000,-0.100000)"
fill="#000000" stroke="none">
<path d="M1238 7523 c6 -2 18 -2 25 0 6 3 1 5 -13 5 -14 0 -19 -2 -12 -5z"/>
<path d="M1080 7490 c-8 -5 -10 -10 -5 -10 6 0 17 5 25 10 8 5 11 10 5 10 -5
0 -17 -5 -25 -10z"/>
<path d="M3260 7486 c0 -2 7 -7 16 -10 8 -3 12 -2 9 4 -6 10 -25 14 -25 6z"/>
<path d="M1014 7454 c-18 -14 -18 -15 4 -4 12 6 22 13 22 15 0 8 -5 6 -26 -11z"/>
<path d="M3300 7461 c0 -9 30 -24 36 -18 2 1 -6 8 -16 15 -11 7 -20 8 -20 3z"/>
<path d="M3350 7426 c0 -2 8 -10 18 -17 15 -13 16 -12 3 4 -13 16 -21 21 -21
13z"/>
<path d="M940 7405 c-11 -13 -10 -14 4 -9 9 3 16 10 16 15 0 13 -6 11 -20 -6z"/>
<path d="M871 7327 c-13 -21 -12 -21 5 -5 10 10 16 20 13 22 -3 3 -11 -5 -18
-17z"/>
<path d="M1736 7297 c3 -10 9 -15 12 -12 3 3 0 11 -7 18 -10 9 -11 8 -5 -6z"/>
<path d="M1510 7281 c0 -6 4 -13 10 -16 6 -3 7 1 4 9 -7 18 -14 21 -14 7z"/>
<path d="M3480 7278 c0 -9 5 -20 10 -23 13 -8 13 5 0 25 -8 13 -10 13 -10 -2z"/>
<path d="M1655 7270 c3 -5 8 -10 11 -10 2 0 4 5 4 10 0 6 -5 10 -11 10 -5 0
-7 -4 -4 -10z"/>
<path d="M2128 7273 c12 -2 30 -2 40 0 9 3 -1 5 -23 4 -22 0 -30 -2 -17 -4z"/>
<path d="M2600 7269 c0 -11 37 -12 43 -1 3 4 -6 8 -19 8 -13 1 -24 -2 -24 -7z"/>
<path d="M1254 7245 c-1 -14 2 -25 7 -25 5 0 9 11 9 25 0 33 -15 33 -16 0z"/>
<path d="M1420 7257 c27 -15 36 -14 25 2 -3 6 -16 11 -28 11 -21 0 -21 -1 3
-13z"/>
<path d="M1578 7158 c4 -205 8 -225 10 -55 1 92 -1 167 -5 167 -5 0 -7 -51 -5
-112z"/>
<path d="M1812 7094 l1 -179 7 170 c4 94 4 174 -1 179 -4 4 -7 -72 -7 -170z"/>
<path d="M1938 7263 c12 -2 30 -2 40 0 9 3 -1 5 -23 4 -22 0 -30 -2 -17 -4z"/>
<path d="M2710 7259 c0 -5 5 -7 10 -4 6 3 10 8 10 11 0 2 -4 4 -10 4 -5 0 -10
-5 -10 -11z"/>
<path d="M2856 7261 c-4 -5 3 -7 14 -4 23 6 26 13 6 13 -8 0 -17 -4 -20 -9z"/>
<path d="M3103 7263 c9 -2 25 -2 35 0 9 3 1 5 -18 5 -19 0 -27 -2 -17 -5z"/>
<path d="M3188 7263 c6 -2 18 -2 25 0 6 3 1 5 -13 5 -14 0 -19 -2 -12 -5z"/>
<path d="M2040 7235 c0 -14 4 -25 9 -25 4 0 6 11 3 25 -2 14 -6 25 -8 25 -2 0
-4 -11 -4 -25z"/>
<path d="M1624 7115 c0 -77 2 -107 3 -67 2 40 2 103 0 140 -2 37 -3 4 -3 -73z"/>
<path d="M1704 7085 c0 -93 2 -133 3 -88 2 45 2 122 0 170 -1 48 -3 12 -3 -82z"/>
<path d="M1734 7065 c0 -104 2 -146 3 -92 2 54 2 139 0 190 -1 51 -3 7 -3 -98z"/>
<path d="M2363 7230 c-3 -11 -8 -18 -12 -16 -4 3 -5 -12 -2 -32 l5 -37 7 35
c3 19 10 43 14 53 4 9 4 17 0 17 -4 0 -9 -9 -12 -20z"/>
<path d="M2574 7070 c0 -102 2 -143 3 -92 2 50 2 134 0 185 -1 50 -3 9 -3 -93z"/>
<path d="M2790 7076 c0 -139 3 -180 14 -191 12 -12 15 -12 20 1 9 23 7 34 -4
34 -5 0 -6 -7 -3 -17 4 -11 3 -14 -6 -9 -9 6 -12 53 -10 177 1 94 -1 173 -5
176 -3 4 -6 -73 -6 -171z"/>
<path d="M3050 7083 c-3 -95 -2 -169 3 -164 4 4 6 81 5 172 l-3 164 -5 -172z"/>
<path d="M3230 7245 c0 -5 5 -17 10 -25 5 -8 10 -10 10 -5 0 6 -5 17 -10 25
-5 8 -10 11 -10 5z"/>
<path d="M2544 7206 c6 -19 12 -33 14 -31 7 6 -9 65 -17 65 -5 0 -3 -15 3 -34z"/>
<path d="M2821 7204 c0 -11 3 -14 6 -6 3 7 2 16 -1 19 -3 4 -6 -2 -5 -13z"/>
<path d="M3021 7204 c0 -11 3 -14 6 -6 3 7 2 16 -1 19 -3 4 -6 -2 -5 -13z"/>
<path d="M1211 7184 c0 -11 3 -14 6 -6 3 7 2 16 -1 19 -3 4 -6 -2 -5 -13z"/>
<path d="M1491 7184 c0 -11 3 -14 6 -6 3 7 2 16 -1 19 -3 4 -6 -2 -5 -13z"/>
<path d="M2042 7175 c0 -16 2 -22 5 -12 2 9 2 23 0 30 -3 6 -5 -1 -5 -18z"/>
<path d="M2140 7196 c0 -2 7 -7 16 -10 8 -3 12 -2 9 4 -6 10 -25 14 -25 6z"/>
<path d="M2445 7190 c-4 -6 3 -10 14 -10 25 0 27 6 6 13 -8 4 -17 2 -20 -3z"/>
<path d="M2910 7188 c0 -6 3 -8 7 -5 3 4 12 2 20 -4 8 -7 13 -8 13 -1 0 5 -7
13 -16 16 -22 8 -24 8 -24 -6z"/>
<path d="M3132 7175 c0 -16 2 -22 5 -12 2 9 2 23 0 30 -3 6 -5 -1 -5 -18z"/>
<path d="M1153 7135 c0 -33 2 -45 4 -27 2 18 2 45 0 60 -2 15 -4 0 -4 -33z"/>
<path d="M1376 7179 c4 -7 11 -29 15 -49 7 -34 8 -33 6 9 -2 27 -8 46 -16 49
-9 3 -11 0 -5 -9z"/>
<path d="M1876 7183 c5 -5 12 -12 16 -18 4 -6 8 -2 8 8 0 9 -7 17 -17 17 -9 0
-12 -3 -7 -7z"/>
<path d="M1970 7030 c0 -90 3 -161 6 -157 7 6 5 309 -1 316 -3 2 -5 -69 -5
-159z"/>
<path d="M3169 7133 c3 -53 2 -56 -18 -50 -12 3 -21 1 -21 -5 0 -5 10 -8 23
-6 19 3 22 10 25 52 2 27 0 52 -5 57 -4 4 -6 -17 -4 -48z"/>
<path d="M3250 7179 c0 -5 5 -7 10 -4 6 3 10 8 10 11 0 2 -4 4 -10 4 -5 0 -10
-5 -10 -11z"/>
<path d="M1350 7159 c0 -5 5 -7 10 -4 6 3 10 8 10 11 0 2 -4 4 -10 4 -5 0 -10
-5 -10 -11z"/>
<path d="M2944 7065 c0 -55 1 -76 3 -47 2 29 2 74 0 100 -2 26 -3 2 -3 -53z"/>
<path d="M1492 7120 c0 -14 2 -19 5 -12 2 6 2 18 0 25 -3 6 -5 1 -5 -13z"/>
<path d="M2140 7132 c0 -10 27 -42 36 -42 8 0 4 7 -16 30 -11 13 -20 18 -20
12z"/>
<path d="M2208 7133 c7 -3 16 -2 19 1 4 3 -2 6 -13 5 -11 0 -14 -3 -6 -6z"/>
<path d="M2498 7133 c7 -3 16 -2 19 1 4 3 -2 6 -13 5 -11 0 -14 -3 -6 -6z"/>
<path d="M2450 7115 c7 -8 17 -15 22 -15 5 0 3 7 -6 15 -8 8 -18 15 -22 15 -3
0 -1 -7 6 -15z"/>
<path d="M1352 7100 c0 -14 2 -19 5 -12 2 6 2 18 0 25 -3 6 -5 1 -5 -13z"/>
<path d="M2350 7110 c0 -5 5 -10 11 -10 5 0 7 5 4 10 -3 6 -8 10 -11 10 -2 0
-4 -4 -4 -10z"/>
<path d="M3541 7094 c0 -11 3 -14 6 -6 3 7 2 16 -1 19 -3 4 -6 -2 -5 -13z"/>
<path d="M2683 7093 c9 -2 23 -2 30 0 6 3 -1 5 -18 5 -16 0 -22 -2 -12 -5z"/>
<path d="M2371 7080 c0 -8 23 -35 52 -59 l52 -43 -47 45 c-25 26 -48 52 -51
59 -4 9 -6 9 -6 -2z"/>
<path d="M2480 7086 c0 -2 8 -10 18 -17 15 -13 16 -12 3 4 -13 16 -21 21 -21
13z"/>
<path d="M3239 7044 c-13 -28 -14 -34 -2 -38 8 -3 11 -1 8 4 -3 5 -1 19 5 30
6 12 10 25 8 29 -2 5 -10 -7 -19 -25z"/>
<path d="M1232 7050 c0 -14 2 -19 5 -12 2 6 2 18 0 25 -3 6 -5 1 -5 -13z"/>
<path d="M1262 7040 c0 -14 2 -19 5 -12 2 6 2 18 0 25 -3 6 -5 1 -5 -13z"/>
<path d="M1452 7046 c7 -8 15 -12 17 -11 5 6 -10 25 -20 25 -5 0 -4 -6 3 -14z"/>
<path d="M2095 7040 c10 -11 20 -20 23 -20 3 0 -3 9 -13 20 -10 11 -20 20 -23
20 -3 0 3 -9 13 -20z"/>
<path d="M2217 7036 c10 -13 19 -23 21 -21 5 5 -22 45 -31 45 -4 0 0 -11 10
-24z"/>
<path d="M1491 7034 c0 -11 3 -14 6 -6 3 7 2 16 -1 19 -3 4 -6 -2 -5 -13z"/>
<path d="M1153 6940 c0 -47 2 -66 4 -42 2 23 2 61 0 85 -2 23 -4 4 -4 -43z"/>
<path d="M1170 7011 c0 -5 9 -7 20 -4 11 3 20 7 20 9 0 2 -9 4 -20 4 -11 0
-20 -4 -20 -9z"/>
<path d="M2660 7010 c0 -5 7 -7 15 -4 8 4 15 8 15 10 0 2 -7 4 -15 4 -8 0 -15
-4 -15 -10z"/>
<path d="M2700 7009 c0 -5 5 -7 10 -4 6 3 10 8 10 11 0 2 -4 4 -10 4 -5 0 -10
-5 -10 -11z"/>
<path d="M1351 6994 c0 -11 3 -14 6 -6 3 7 2 16 -1 19 -3 4 -6 -2 -5 -13z"/>
<path d="M1377 7003 c6 -5 14 -31 16 -58 l4 -50 -1 54 c-1 39 -5 56 -16 58
-10 3 -11 2 -3 -4z"/>
<path d="M1471 6994 c0 -11 3 -14 6 -6 3 7 2 16 -1 19 -3 4 -6 -2 -5 -13z"/>
<path d="M2549 6978 c4 -28 6 -29 9 -9 2 13 0 27 -5 32 -6 6 -7 -3 -4 -23z"/>
<path d="M3163 7003 c-18 -2 -33 -8 -33 -13 0 -8 67 4 77 14 4 3 2 5 -3 4 -5
0 -24 -3 -41 -5z"/>
<path d="M2150 6991 c0 -6 4 -13 10 -16 6 -3 7 1 4 9 -7 18 -14 21 -14 7z"/>
<path d="M2902 6970 c0 -19 2 -27 5 -17 2 9 2 25 0 35 -3 9 -5 1 -5 -18z"/>
<path d="M2068 6983 c6 -2 18 -2 25 0 6 3 1 5 -13 5 -14 0 -19 -2 -12 -5z"/>
<path d="M1621 6954 c0 -11 3 -14 6 -6 3 7 2 16 -1 19 -3 4 -6 -2 -5 -13z"/>
<path d="M2467 6941 c-4 -17 -3 -21 5 -13 5 5 8 16 6 23 -3 8 -7 3 -11 -10z"/>
<path d="M2942 6940 c0 -14 2 -19 5 -12 2 6 2 18 0 25 -3 6 -5 1 -5 -13z"/>
<path d="M3132 6940 c0 -14 2 -19 5 -12 2 6 2 18 0 25 -3 6 -5 1 -5 -13z"/>
<path d="M2152 6934 c-7 -8 -8 -14 -3 -14 10 0 25 19 20 25 -2 1 -10 -3 -17
-11z"/>
<path d="M2030 6929 c0 -5 -5 -7 -12 -3 -7 4 -8 3 -4 -5 4 -6 11 -9 15 -7 4 3
13 -9 20 -25 7 -17 16 -28 19 -24 3 3 0 11 -6 17 -7 7 -12 22 -12 35 0 13 -4
23 -10 23 -5 0 -10 -5 -10 -11z"/>
<path d="M2435 6930 c3 -5 8 -10 11 -10 2 0 4 5 4 10 0 6 -5 10 -11 10 -5 0
-7 -4 -4 -10z"/>
<path d="M1350 6901 c0 -17 2 -31 4 -31 8 0 13 51 5 56 -5 3 -9 -9 -9 -25z"/>
<path d="M2346 6921 c-3 -4 1 -17 10 -27 14 -18 15 -18 5 2 -6 12 -7 24 -4 28
3 3 4 6 0 6 -3 0 -8 -4 -11 -9z"/>
<path d="M1475 6910 c-3 -5 -1 -10 4 -10 6 0 11 5 11 10 0 6 -2 10 -4 10 -3 0
-8 -4 -11 -10z"/>
<path d="M1501 6904 c0 -11 3 -14 6 -6 3 7 2 16 -1 19 -3 4 -6 -2 -5 -13z"/>
<path d="M2537 6884 c-10 -13 -14 -24 -10 -24 9 0 36 40 31 45 -2 2 -11 -8
-21 -21z"/>
<path d="M3132 6890 c0 -14 2 -19 5 -12 2 6 2 18 0 25 -3 6 -5 1 -5 -13z"/>
<path d="M3051 6884 c0 -11 3 -14 6 -6 3 7 2 16 -1 19 -3 4 -6 -2 -5 -13z"/>
<path d="M1390 6871 c0 -11 4 -22 9 -25 4 -3 6 6 3 19 -5 30 -12 33 -12 6z"/>
<path d="M2225 6879 c-4 -6 -5 -12 -2 -15 2 -3 7 2 10 11 7 17 1 20 -8 4z"/>
<path d="M1520 6871 c0 -10 19 -25 25 -20 1 2 -3 10 -11 17 -8 7 -14 8 -14 3z"/>
<path d="M2830 6869 c0 -5 5 -7 10 -4 6 3 10 8 10 11 0 2 -4 4 -10 4 -5 0 -10
-5 -10 -11z"/>
<path d="M3000 6869 c0 -5 5 -7 10 -4 6 3 10 8 10 11 0 2 -4 4 -10 4 -5 0 -10
-5 -10 -11z"/>
<path d="M1666 6863 c-4 -4 -31 -10 -59 -14 l-52 -6 51 -2 c35 -1 56 4 64 14
13 15 10 21 -4 8z"/>
<path d="M2380 6859 c0 -8 59 -24 65 -17 2 2 -12 8 -31 14 -19 6 -34 8 -34 3z"/>
<path d="M1805 6850 c-3 -5 -1 -10 4 -10 6 0 11 5 11 10 0 6 -2 10 -4 10 -3 0
-8 -4 -11 -10z"/>
<path d="M1965 6850 c-3 -5 -1 -10 4 -10 6 0 11 5 11 10 0 6 -2 10 -4 10 -3 0
-8 -4 -11 -10z"/>
<path d="M2175 6850 c-13 -6 -15 -9 -5 -9 8 0 22 4 30 9 18 12 2 12 -25 0z"/>
<path d="M2556 6851 c-2 -3 21 -8 52 -9 31 -2 55 -1 52 1 -9 8 -100 15 -104 8z"/>
<path d="M2800 6850 c8 -5 20 -10 25 -10 6 0 3 5 -5 10 -8 5 -19 10 -25 10 -5
0 -3 -5 5 -10z"/>
<path d="M2850 6850 c0 -4 28 -7 63 -8 72 -1 66 4 -10 11 -29 2 -53 1 -53 -3z"/>
<path d="M3038 6853 c7 -3 16 -2 19 1 4 3 -2 6 -13 5 -11 0 -14 -3 -6 -6z"/>
<path d="M820 6844 c1 -16 29 -60 29 -44 0 8 -6 24 -14 34 -8 11 -15 16 -15
10z"/>
<path d="M1098 6843 c12 -2 30 -2 40 0 9 3 -1 5 -23 4 -22 0 -30 -2 -17 -4z"/>
<path d="M1293 6843 c9 -2 23 -2 30 0 6 3 -1 5 -18 5 -16 0 -22 -2 -12 -5z"/>
<path d="M1433 6843 c9 -2 23 -2 30 0 6 3 -1 5 -18 5 -16 0 -22 -2 -12 -5z"/>
<path d="M1748 6843 c7 -3 16 -2 19 1 4 3 -2 6 -13 5 -11 0 -14 -3 -6 -6z"/>
<path d="M1918 6843 c6 -2 18 -2 25 0 6 3 1 5 -13 5 -14 0 -19 -2 -12 -5z"/>
<path d="M2113 6843 c9 -2 23 -2 30 0 6 3 -1 5 -18 5 -16 0 -22 -2 -12 -5z"/>
<path d="M2743 6843 c9 -2 23 -2 30 0 6 3 -1 5 -18 5 -16 0 -22 -2 -12 -5z"/>
<path d="M3088 6843 c12 -2 30 -2 40 0 9 3 -1 5 -23 4 -22 0 -30 -2 -17 -4z"/>
<path d="M3486 6815 c-9 -26 -7 -32 5 -12 6 10 9 21 6 23 -2 3 -7 -2 -11 -11z"/>
<path d="M920 6691 c0 -10 19 -25 25 -20 1 2 -3 10 -11 17 -8 7 -14 8 -14 3z"/>
<path d="M5444 6640 c-49 -26 -413 -215 -809 -420 -396 -205 -760 -394 -810
-420 -49 -26 -232 -121 -405 -210 -173 -89 -318 -165 -322 -169 -3 -3 23 -61
59 -129 l65 -123 182 94 c99 52 487 253 861 447 374 194 725 376 780 405 55
29 188 98 297 154 l196 101 244 -119 c133 -65 428 -210 653 -321 1297 -640
1546 -762 1550 -758 2 2 30 58 64 126 l60 123 -272 133 c-149 73 -598 294
-997 491 -399 197 -856 422 -1016 500 l-292 143 -88 -48z"/>
<path d="M3364 6658 l-19 -23 23 19 c21 18 27 26 19 26 -2 0 -12 -10 -23 -22z"/>
<path d="M3280 6600 c-8 -5 -10 -10 -5 -10 6 0 17 5 25 10 8 5 11 10 5 10 -5
0 -17 -5 -25 -10z"/>
<path d="M3148 6553 c7 -3 16 -2 19 1 4 3 -2 6 -13 5 -11 0 -14 -3 -6 -6z"/>
<path d="M3058 6543 c12 -2 32 -2 45 0 12 2 2 4 -23 4 -25 0 -35 -2 -22 -4z"/>
<path d="M3934 4530 c0 -85 2 -120 3 -77 2 42 2 112 0 155 -1 42 -3 7 -3 -78z"/>
<path d="M4214 4520 c0 -91 2 -128 3 -82 2 45 2 119 0 165 -1 45 -3 8 -3 -83z"/>
<path d="M4534 4535 c0 -82 2 -115 3 -72 2 43 2 110 0 150 -1 40 -3 5 -3 -78z"/>
<path d="M4804 4530 c0 -85 2 -120 3 -77 2 42 2 112 0 155 -1 42 -3 7 -3 -78z"/>
<path d="M5124 4520 c0 -91 2 -128 3 -82 2 45 2 119 0 165 -1 45 -3 8 -3 -83z"/>
<path d="M5712 4540 c0 -80 3 -154 7 -164 7 -18 4 261 -3 294 -2 8 -4 -50 -4
-130z"/>
<path d="M5743 4640 c0 -25 2 -35 4 -22 2 12 2 32 0 45 -2 12 -4 2 -4 -23z"/>
<path d="M5994 4535 c0 -82 2 -115 3 -72 2 43 2 110 0 150 -1 40 -3 5 -3 -78z"/>
<path d="M4160 4429 c0 -5 5 -7 10 -4 6 3 10 8 10 11 0 2 -4 4 -10 4 -5 0 -10
-5 -10 -11z"/>
<path d="M5392 4415 c0 -16 2 -22 5 -12 2 9 2 23 0 30 -3 6 -5 -1 -5 -18z"/>
<path d="M5741 4424 c0 -11 3 -14 6 -6 3 7 2 16 -1 19 -3 4 -6 -2 -5 -13z"/>
<path d="M3951 4354 c0 -11 13 -33 31 -50 18 -16 25 -20 15 -8 -18 21 -23 39
-9 30 4 -2 8 4 8 15 0 18 -2 18 -12 5 -15 -22 -22 -20 -27 7 -4 20 -4 20 -6 1z"/>
<path d="M4540 4355 c0 -5 5 -17 10 -25 5 -8 10 -10 10 -5 0 6 -5 17 -10 25
-5 8 -10 11 -10 5z"/>
<path d="M5370 4341 c-6 -12 -7 -21 -1 -21 10 0 24 30 17 37 -2 3 -9 -5 -16
-16z"/>
<path d="M5970 4346 c0 -8 -5 -18 -12 -22 -8 -5 -9 -2 -5 10 4 11 3 15 -4 11
-5 -4 -8 -12 -6 -18 2 -7 -3 -21 -12 -31 -16 -19 -16 -19 11 0 29 21 54 64 38
64 -6 0 -10 -6 -10 -14z"/>
<path d="M4762 4320 c-7 -11 -8 -20 -3 -20 9 0 24 30 18 36 -1 2 -8 -6 -15
-16z"/>
<path d="M4169 4313 c-13 -16 -12 -17 4 -4 16 13 21 21 13 21 -2 0 -10 -8 -17
-17z"/>
<path d="M5750 4321 c0 -10 19 -25 25 -20 1 2 -3 10 -11 17 -8 7 -14 8 -14 3z"/>
<path d="M5160 4310 c0 -5 5 -10 11 -10 5 0 7 5 4 10 -3 6 -8 10 -11 10 -2 0
-4 -4 -4 -10z"/>
<path d="M4720 4301 c0 -10 19 -25 25 -20 1 2 -3 10 -11 17 -8 7 -14 8 -14 3z"/>
<path d="M5325 4299 c-11 -17 -2 -18 19 -3 17 12 17 14 4 14 -9 0 -20 -5 -23
-11z"/>
<path d="M5193 4290 c2 -8 16 -16 33 -17 25 -1 26 0 4 4 -14 3 -29 10 -33 17
-6 7 -7 6 -4 -4z"/>
<path d="M5790 4280 c8 -5 24 -9 35 -9 l20 0 -20 9 c-11 5 -27 9 -35 9 -13 1
-13 0 0 -9z"/>
<path d="M4028 4273 c6 -2 18 -2 25 0 6 3 1 5 -13 5 -14 0 -19 -2 -12 -5z"/>
<path d="M4663 4273 c9 -2 25 -2 35 0 9 3 1 5 -18 5 -19 0 -27 -2 -17 -5z"/>
<path d="M5276 4271 c-4 -5 3 -7 14 -4 23 6 26 13 6 13 -8 0 -17 -4 -20 -9z"/>
<path d="M5868 4273 c6 -2 18 -2 25 0 6 3 1 5 -13 5 -14 0 -19 -2 -12 -5z"/>
<path d="M7782 3814 c-7 -8 -8 -14 -3 -14 10 0 25 19 20 25 -2 1 -10 -3 -17
-11z"/>
<path d="M3572 3760 c-40 -11 -80 -24 -90 -30 -14 -9 -12 -10 8 -3 14 4 38 7
53 7 18 -1 24 2 16 7 -8 5 7 10 39 15 29 3 52 10 52 15 0 5 -1 9 -2 8 -2 0
-36 -9 -76 -19z"/>
<path d="M7796 3750 c11 -43 21 -53 21 -21 0 16 -4 28 -8 25 -4 -2 -10 2 -13
8 -3 7 -3 2 0 -12z"/>
<path d="M3647 3726 c-4 -10 -5 -21 -2 -24 9 -9 17 6 13 25 -3 17 -4 17 -11
-1z"/>
<path d="M7752 3720 c0 -14 2 -19 5 -12 2 6 2 18 0 25 -3 6 -5 1 -5 -13z"/>
<path d="M3096 3715 c-8 -8 -18 -24 -21 -35 -4 -14 -15 -20 -34 -20 -44 0 -53
-19 -50 -109 3 -77 4 -81 26 -82 35 -2 41 -3 49 -11 4 -5 -6 -8 -22 -8 -51 -1
-64 -19 -64 -94 0 -83 11 -106 50 -106 41 0 39 -25 -2 -28 -18 -2 -36 -8 -40
-15 -11 -17 -10 -149 1 -166 5 -8 23 -14 40 -15 24 -1 33 -7 42 -29 7 -16 22
-33 33 -37 12 -5 -229 -9 -551 -9 -541 -1 -572 0 -567 17 2 9 -1 7 -7 -5 l-12
-23 -383 0 c-375 0 -383 0 -389 -20 -4 -11 -6 -37 -5 -58 4 -77 10 -72 -95
-72 l-95 0 0 -80 0 -80 3900 0 3900 0 0 80 0 80 -125 0 -125 0 0 75 0 75 -277
2 c-153 0 -286 0 -297 0 -12 -2 -16 3 -12 13 3 8 1 15 -3 15 -5 0 -11 -5 -13
-11 -5 -15 -250 -17 -1703 -18 -610 0 -1119 0 -1130 -1 -130 -3 -1452 3 -1458
7 -5 3 -104 5 -220 5 -117 0 -203 2 -192 5 29 7 55 33 55 55 0 13 7 18 25 18
14 0 25 -6 25 -12 0 -10 2 -10 8 -1 5 8 88 11 290 12 268 1 282 0 282 -17 0
-36 32 -52 104 -52 58 0 70 3 91 25 14 13 25 28 25 33 0 5 11 14 25 20 23 11
25 17 25 81 0 66 -14 101 -40 101 -4 0 -10 7 -13 15 -4 9 4 19 21 27 24 12 27
20 30 68 4 70 -3 97 -28 105 -28 9 -25 30 5 43 25 12 26 15 23 89 -3 70 -5 79
-25 88 -13 5 -23 15 -23 22 0 7 -9 22 -20 33 -16 16 -33 20 -94 20 -80 0 -106
-13 -106 -52 0 -19 -5 -20 -275 -16 -187 2 -271 6 -261 13 8 6 23 16 33 23 10
7 -3 2 -29 -12 -57 -32 -108 -35 -108 -7 0 38 -27 51 -105 51 -52 0 -78 -4
-89 -15z m832 -259 c3 -14 -14 -16 -137 -16 -106 0 -141 3 -141 13 0 7 -3 8
-8 2 -4 -6 -63 -10 -142 -9 -177 1 -200 2 -200 14 0 6 67 9 175 9 97 -1 178 0
180 2 2 2 63 3 137 2 113 -1 133 -4 136 -17z m0 -218 c3 -17 -17 -18 -309 -15
-239 1 -313 5 -317 15 -5 15 323 18 333 2 7 -12 26 -14 24 -2 -1 4 -1 11 0 15
0 4 61 6 133 5 117 -3 133 -5 136 -20z"/>
<path d="M7781 3706 c7 -15 15 -23 17 -16 3 7 -3 19 -13 28 -15 16 -16 15 -4
-12z"/>
<path d="M7737 3668 c-3 -12 -3 -28 1 -35 5 -8 8 0 9 22 1 40 -2 44 -10 13z"/>
<path d="M7831 3664 c0 -11 3 -14 6 -6 3 7 2 16 -1 19 -3 4 -6 -2 -5 -13z"/>
<path d="M7840 3624 c0 -10 5 -26 10 -34 8 -11 9 -7 4 15 -8 37 -14 45 -14 19z"/>
<path d="M7721 3604 c0 -11 3 -14 6 -6 3 7 2 16 -1 19 -3 4 -6 -2 -5 -13z"/>
<path d="M7857 3563 c-3 -5 1 -21 9 -38 11 -24 12 -25 7 -5 -3 14 -6 31 -6 38
0 14 -4 15 -10 5z"/>
<path d="M7696 3514 c-4 -14 -5 -28 -3 -31 3 -2 8 8 11 23 4 14 5 28 3 31 -3
2 -8 -8 -11 -23z"/>
<path d="M7741 3524 c0 -11 3 -14 6 -6 3 7 2 16 -1 19 -3 4 -6 -2 -5 -13z"/>
<path d="M7841 3524 c0 -11 3 -14 6 -6 3 7 2 16 -1 19 -3 4 -6 -2 -5 -13z"/>
<path d="M7886 3418 c5 -33 3 -48 -5 -48 -6 0 -11 -5 -11 -11 0 -8 5 -8 15 1
17 14 20 67 5 90 -7 10 -8 0 -4 -32z"/>
<path d="M2860 3440 c-9 -6 -10 -10 -3 -10 6 0 15 5 18 10 8 12 4 12 -15 0z"/>
<path d="M7671 3424 c0 -11 3 -14 6 -6 3 7 2 16 -1 19 -3 4 -6 -2 -5 -13z"/>
<path d="M7661 3384 c0 -11 3 -14 6 -6 3 7 2 16 -1 19 -3 4 -6 -2 -5 -13z"/>
<path d="M7651 3344 c0 -11 3 -14 6 -6 3 7 2 16 -1 19 -3 4 -6 -2 -5 -13z"/>
<path d="M2675 3341 c-3 -5 -2 -12 3 -15 5 -3 9 1 9 9 0 17 -3 19 -12 6z"/>
<path d="M7641 3304 c0 -11 3 -14 6 -6 3 7 2 16 -1 19 -3 4 -6 -2 -5 -13z"/>
<path d="M2587 3243 c-20 -32 -37 -65 -36 -73 0 -8 5 -3 11 13 5 15 14 27 19
27 5 0 9 6 9 14 0 8 12 28 26 45 14 17 22 31 17 31 -5 0 -25 -26 -46 -57z"/>
<path d="M7630 3266 c0 -8 4 -17 9 -20 5 -4 7 3 4 14 -6 23 -13 26 -13 6z"/>
<path d="M7921 3244 c0 -11 3 -14 6 -6 3 7 2 16 -1 19 -3 4 -6 -2 -5 -13z"/>
<path d="M7942 3240 c0 -14 2 -19 5 -12 2 6 2 18 0 25 -3 6 -5 1 -5 -13z"/>
<path d="M7663 3235 c-3 -9 -3 -18 -1 -21 3 -3 8 4 11 16 6 23 -1 27 -10 5z"/>
<path d="M7611 3194 c0 -11 3 -14 6 -6 3 7 2 16 -1 19 -3 4 -6 -2 -5 -13z"/>
<path d="M7641 3174 c0 -11 3 -14 6 -6 3 7 2 16 -1 19 -3 4 -6 -2 -5 -13z"/>
<path d="M7936 3163 c-6 -14 -5 -15 5 -6 7 7 10 15 7 18 -3 3 -9 -2 -12 -12z"/>
<path d="M2353 3143 c9 -2 25 -2 35 0 9 3 1 5 -18 5 -19 0 -27 -2 -17 -5z"/>
<path d="M2288 3133 c6 -2 18 -2 25 0 6 3 1 5 -13 5 -14 0 -19 -2 -12 -5z"/>
<path d="M7521 3124 c0 -11 3 -14 6 -6 3 7 2 16 -1 19 -3 4 -6 -2 -5 -13z"/>
<path d="M7971 3124 c0 -11 3 -14 6 -6 3 7 2 16 -1 19 -3 4 -6 -2 -5 -13z"/>
<path d="M7555 3120 c3 -5 11 -10 16 -10 6 0 7 5 4 10 -3 6 -11 10 -16 10 -6
0 -7 -4 -4 -10z"/>
<path d="M2175 3110 c-13 -5 -14 -9 -5 -9 8 0 24 4 35 9 13 5 14 9 5 9 -8 0
-24 -4 -35 -9z"/>
<path d="M2120 3090 c-8 -5 -10 -10 -5 -10 6 0 17 5 25 10 8 5 11 10 5 10 -5
0 -17 -5 -25 -10z"/>
<path d="M7927 3063 c5 -13 -2 -15 -46 -12 -28 2 -51 1 -51 -3 0 -5 27 -8 60
-8 45 0 60 4 60 14 0 8 -7 16 -14 19 -11 4 -13 1 -9 -10z"/>
<path d="M2039 3039 c-23 -19 -23 -20 -2 -10 12 6 25 16 28 21 10 16 -1 12
-26 -11z"/>
<path d="M7961 3038 c0 -9 -4 -25 -7 -35 -5 -17 -5 -17 6 0 6 10 9 25 7 35 -4
15 -5 15 -6 0z"/>
<path d="M7995 3030 c-3 -5 1 -10 10 -10 9 0 13 5 10 10 -3 6 -8 10 -10 10 -2
0 -7 -4 -10 -10z"/>
<path d="M7591 3014 c0 -11 3 -14 6 -6 3 7 2 16 -1 19 -3 4 -6 -2 -5 -13z"/>
<path d="M3630 3013 c0 -15 19 -37 26 -31 3 4 -1 14 -10 23 -9 9 -16 13 -16 8z"/>
<path d="M7783 3009 c9 -5 17 -19 17 -29 0 -11 5 -20 10 -20 6 0 10 3 10 8 0
14 -31 52 -43 52 -7 0 -4 -5 6 -11z"/>
<path d="M8006 2995 c4 -8 8 -15 10 -15 2 0 4 7 4 15 0 8 -4 15 -10 15 -5 0
-7 -7 -4 -15z"/>
<path d="M2672 2980 c0 -14 2 -19 5 -12 2 6 2 18 0 25 -3 6 -5 1 -5 -13z"/>
</g>
</svg>
