<?xml version="1.0" standalone="no"?>
<!DOCTYPE svg PUBLIC "-//W3C//DTD SVG 20010904//EN"
 "http://www.w3.org/TR/2001/REC-SVG-20010904/DTD/svg10.dtd">
<svg version="1.0" xmlns="http://www.w3.org/2000/svg"
 width="500.000000pt" height="500.000000pt" viewBox="0 0 500.000000 500.000000"
 preserveAspectRatio="xMidYMid meet">
<metadata>
Created by potrace 1.14, written by Peter Selinger 2001-2017
</metadata>
<g transform="translate(0.000000,500.000000) scale(0.100000,-0.100000)"
fill="#000000" stroke="none">
<path d="M740 3910 c-166 -5 -178 -6 -232 -33 -71 -35 -130 -101 -159 -176
-17 -44 -20 -71 -17 -131 6 -90 30 -143 97 -210 62 -62 129 -87 241 -89 46 -1
86 -4 89 -6 2 -3 4 -401 5 -885 l1 -880 -77 0 -78 0 0 -40 0 -40 -49 0 -50 0
2 -35 c1 -19 4 -36 7 -36 3 -1 894 -2 1980 -3 1369 -1 1977 1 1982 9 12 17 9
65 -4 66 -7 1 -35 2 -63 3 -27 0 -50 6 -50 11 -1 6 -5 32 -9 59 -5 35 -4 51 4
56 9 6 2 48 -30 166 -23 88 -43 164 -44 169 -2 6 -6 27 -11 48 -4 20 -12 38
-19 38 -58 7 -286 2 -287 -6 -1 -13 -4 -27 -24 -95 -8 -30 -17 -67 -20 -82 -3
-15 -9 -38 -15 -52 -5 -15 -7 -26 -4 -26 4 0 2 -6 -4 -12 -6 -7 -11 -17 -11
-23 -6 -65 -20 -86 -46 -67 -7 4 -10 192 -10 537 0 292 -3 547 -6 568 -4 25
-3 37 5 37 6 0 61 -24 121 -54 61 -29 114 -51 118 -49 10 6 60 113 55 118 -2
2 -201 101 -443 220 -242 119 -534 263 -650 320 -187 93 -212 103 -232 92 -13
-7 -110 -57 -216 -111 -105 -55 -208 -108 -227 -119 -19 -11 -150 -78 -290
-150 -140 -72 -290 -150 -334 -174 -43 -24 -84 -43 -90 -43 -13 -1 -56 -35
-56 -45 0 -12 33 -79 47 -96 12 -14 24 -10 116 37 56 29 108 53 114 54 9 0 11
-12 7 -42 -3 -24 -7 -207 -7 -407 l-2 -363 -55 -21 c-30 -11 -67 -28 -82 -39
-27 -19 -27 -19 -47 4 -27 31 -86 30 -108 -1 -8 -12 -18 -19 -23 -16 -13 8
-22 -12 -22 -51 0 -29 -4 -35 -26 -40 -15 -3 -34 -8 -42 -10 -13 -3 -15 84
-14 746 0 413 3 752 5 754 2 2 47 6 99 8 106 6 160 25 221 80 75 68 108 148
105 255 -4 119 -74 222 -188 276 -46 22 -67 25 -178 27 -313 5 -609 5 -770 0z
m631 -649 c1 -3 2 -350 3 -770 l1 -765 -37 -45 c-21 -25 -38 -51 -38 -57 0 -7
-27 -14 -67 -17 -124 -10 -181 -31 -216 -79 -20 -27 -24 -28 -101 -28 l-81 0
0 877 c0 535 3 881 9 885 12 8 526 8 527 -1z m695 -1089 c7 -4 10 -31 9 -67
-2 -33 -3 -90 -4 -127 -1 -51 -4 -68 -15 -68 -10 0 -14 13 -14 48 0 26 -3 86
-6 135 -6 88 -2 100 30 79z m938 -21 c-13 -29 -7 -218 8 -237 12 -17 -13 -33
-38 -24 -20 8 -21 14 -19 147 1 76 3 139 4 139 0 1 13 -1 27 -4 19 -3 23 -9
18 -21z m244 -93 c0 -64 3 -83 16 -90 19 -11 21 -38 4 -38 -35 1 -39 16 -37
118 3 119 17 128 17 10z m327 -234 c0 -203 -3 -276 -12 -285 -7 -7 -15 -10
-18 -8 -3 4 -6 358 -4 582 0 16 1 16 17 0 15 -15 17 -47 17 -289z m442 92 c-3
-8 1 -17 9 -20 9 -3 12 -11 9 -16 -4 -6 -2 -17 4 -24 7 -8 11 -18 10 -22 -1
-5 0 -12 1 -16 1 -5 4 -12 5 -18 1 -5 3 -11 5 -12 3 -5 10 -43 12 -75 2 -18 7
-33 12 -33 4 0 6 -9 3 -20 -3 -11 -2 -18 3 -15 4 3 10 -6 12 -20 3 -13 1 -22
-3 -19 -5 3 0 -10 10 -28 10 -18 22 -43 26 -55 5 -20 3 -23 -20 -23 -24 0 -26
3 -21 24 3 12 2 26 -2 30 -4 4 -7 11 -8 14 0 4 -8 32 -18 63 -9 31 -18 65 -20
76 -3 11 -9 38 -15 59 -6 21 -8 40 -6 43 3 2 1 9 -4 15 -12 14 -23 85 -15 97
8 14 17 11 11 -5z m281 -371 c6 -2 12 -14 12 -25 0 -19 -5 -21 -67 -18 -63 3
-67 5 -74 30 l-7 26 62 -4 c33 -3 67 -7 74 -9z m-238 -14 c0 -37 -51 -41 -74
-6 l-16 25 45 0 c37 0 45 -3 45 -19z"/>
</g>
</svg>
